<svg id="Graphics" xmlns="http://www.w3.org/2000/svg" xmlns:xlink="http://www.w3.org/1999/xlink" viewBox="0 0 238.821 209.182"><defs><style>.cls-1,.cls-72{opacity:0.3;}.cls-1{fill:url(#linear-gradient);}.cls-2{opacity:0.293;fill:url(#linear-gradient-2);}.cls-3{opacity:0.285;fill:url(#linear-gradient-3);}.cls-4{opacity:0.278;fill:url(#linear-gradient-4);}.cls-5{opacity:0.271;fill:url(#linear-gradient-5);}.cls-6{opacity:0.263;fill:url(#linear-gradient-6);}.cls-7{opacity:0.256;fill:url(#linear-gradient-7);}.cls-8{opacity:0.249;fill:url(#linear-gradient-8);}.cls-9{opacity:0.241;fill:url(#linear-gradient-9);}.cls-10{opacity:0.234;fill:url(#linear-gradient-10);}.cls-11{opacity:0.227;fill:url(#linear-gradient-11);}.cls-12{opacity:0.22;fill:url(#linear-gradient-12);}.cls-13{opacity:0.212;fill:url(#linear-gradient-13);}.cls-14{opacity:0.205;fill:url(#linear-gradient-14);}.cls-15{opacity:0.198;fill:url(#linear-gradient-15);}.cls-16{opacity:0.19;fill:url(#linear-gradient-16);}.cls-17{opacity:0.183;fill:url(#linear-gradient-17);}.cls-18{opacity:0.176;fill:url(#linear-gradient-18);}.cls-19{opacity:0.168;fill:url(#linear-gradient-19);}.cls-20{opacity:0.161;fill:url(#linear-gradient-20);}.cls-21{opacity:0.154;fill:url(#linear-gradient-21);}.cls-22{opacity:0.146;fill:url(#linear-gradient-22);}.cls-23{opacity:0.139;fill:url(#linear-gradient-23);}.cls-24{opacity:0.132;fill:url(#linear-gradient-24);}.cls-25{opacity:0.124;fill:url(#linear-gradient-25);}.cls-26{opacity:0.117;fill:url(#linear-gradient-26);}.cls-27{opacity:0.11;fill:url(#linear-gradient-27);}.cls-28{opacity:0.102;fill:url(#linear-gradient-28);}.cls-29{opacity:0.095;fill:url(#linear-gradient-29);}.cls-30{opacity:0.088;fill:url(#linear-gradient-30);}.cls-31{opacity:0.08;fill:url(#linear-gradient-31);}.cls-32{opacity:0.073;fill:url(#linear-gradient-32);}.cls-33{opacity:0.066;fill:url(#linear-gradient-33);}.cls-34{opacity:0.059;fill:url(#linear-gradient-34);}.cls-35{opacity:0.051;fill:url(#linear-gradient-35);}.cls-36{opacity:0.044;fill:url(#linear-gradient-36);}.cls-37{opacity:0.037;fill:url(#linear-gradient-37);}.cls-38{opacity:0.029;fill:url(#linear-gradient-38);}.cls-39{opacity:0.022;fill:url(#linear-gradient-39);}.cls-40{opacity:0.015;fill:url(#linear-gradient-40);}.cls-41{opacity:0.007;fill:url(#linear-gradient-41);}.cls-42{opacity:0;fill:url(#linear-gradient-42);}.cls-43,.cls-45,.cls-47,.cls-49,.cls-82,.cls-84,.cls-85,.cls-87,.cls-88,.cls-89,.cls-90,.cls-91,.cls-92,.cls-93,.cls-94,.cls-95,.cls-96,.cls-97{opacity:0.26;}.cls-43{fill:url(#linear-gradient-43);}.cls-44{fill:url(#linear-gradient-44);}.cls-45{fill:url(#linear-gradient-45);}.cls-46{fill:url(#linear-gradient-46);}.cls-47{fill:url(#linear-gradient-47);}.cls-48{fill:url(#linear-gradient-48);}.cls-49{fill:url(#linear-gradient-49);}.cls-50{fill:url(#linear-gradient-50);}.cls-51{fill:url(#linear-gradient-51);}.cls-52{fill:url(#linear-gradient-52);}.cls-53{fill:url(#linear-gradient-53);}.cls-54{fill:url(#linear-gradient-54);}.cls-55{fill:#f2b1b5;}.cls-56{fill:#fff;}.cls-57,.cls-65,.cls-68{fill:#ef9ea3;}.cls-57{opacity:0.25;}.cls-58{fill:#655a91;}.cls-59{fill:#3f3b6b;}.cls-60{fill:#55477f;}.cls-61,.cls-78{fill:#f9d8da;}.cls-61,.cls-77{opacity:0.64;}.cls-62{fill:#574fba;}.cls-63{fill:#7866a2;}.cls-64{fill:#bbb3d1;}.cls-65,.cls-67{opacity:0.2;}.cls-66{fill:#312075;}.cls-69{opacity:0.38;fill:url(#linear-gradient-55);}.cls-70{fill:#ff6e84;}.cls-71{fill:#efbfc5;}.cls-73{fill:#231f20;}.cls-74{fill:#56408b;}.cls-75{fill:#525184;}.cls-76{fill:#ffc259;}.cls-79{fill:url(#linear-gradient-56);}.cls-80{fill:url(#linear-gradient-57);}.cls-81{fill:url(#linear-gradient-58);}.cls-82{fill:url(#linear-gradient-59);}.cls-83{fill:url(#linear-gradient-60);}.cls-84{fill:url(#linear-gradient-61);}.cls-85{fill:url(#linear-gradient-62);}.cls-86{fill:url(#linear-gradient-63);}.cls-87{fill:url(#linear-gradient-64);}.cls-88{fill:url(#linear-gradient-65);}.cls-89{fill:url(#linear-gradient-66);}.cls-90{fill:url(#linear-gradient-67);}.cls-91{fill:url(#linear-gradient-68);}.cls-92{fill:url(#linear-gradient-69);}.cls-93{fill:url(#linear-gradient-70);}.cls-94{fill:url(#linear-gradient-71);}.cls-95{fill:url(#linear-gradient-72);}.cls-96{fill:url(#linear-gradient-73);}.cls-97{fill:url(#linear-gradient-74);}.cls-98{fill:url(#linear-gradient-75);}.cls-99{fill:url(#linear-gradient-76);}.cls-100{fill:url(#linear-gradient-77);}.cls-101{fill:url(#linear-gradient-78);}.cls-102{fill:url(#linear-gradient-79);}.cls-103{fill:url(#linear-gradient-80);}.cls-104{fill:url(#linear-gradient-81);}.cls-105{fill:url(#linear-gradient-82);}</style><linearGradient id="linear-gradient" x1="38.377" y1="192.169" x2="195.519" y2="192.169" gradientUnits="userSpaceOnUse"><stop offset="0" stop-color="#e967cd"/><stop offset="0.33" stop-color="#ef83ac"/><stop offset="1" stop-color="#fec55e"/></linearGradient><linearGradient id="linear-gradient-2" x1="38.377" y1="190.786" x2="195.519" y2="190.786" xlink:href="#linear-gradient"/><linearGradient id="linear-gradient-3" x1="38.377" y1="189.402" x2="195.519" y2="189.402" xlink:href="#linear-gradient"/><linearGradient id="linear-gradient-4" x1="38.377" y1="188.018" x2="195.519" y2="188.018" xlink:href="#linear-gradient"/><linearGradient id="linear-gradient-5" x1="38.377" y1="186.634" x2="195.519" y2="186.634" xlink:href="#linear-gradient"/><linearGradient id="linear-gradient-6" x1="38.377" y1="185.25" x2="195.519" y2="185.25" xlink:href="#linear-gradient"/><linearGradient id="linear-gradient-7" x1="38.377" y1="183.866" x2="195.519" y2="183.866" xlink:href="#linear-gradient"/><linearGradient id="linear-gradient-8" x1="38.377" y1="182.482" x2="195.519" y2="182.482" xlink:href="#linear-gradient"/><linearGradient id="linear-gradient-9" x1="38.377" y1="181.098" x2="195.519" y2="181.098" xlink:href="#linear-gradient"/><linearGradient id="linear-gradient-10" x1="38.377" y1="179.714" x2="195.519" y2="179.714" xlink:href="#linear-gradient"/><linearGradient id="linear-gradient-11" x1="38.377" y1="178.33" x2="195.519" y2="178.33" xlink:href="#linear-gradient"/><linearGradient id="linear-gradient-12" x1="38.377" y1="176.946" x2="195.519" y2="176.946" xlink:href="#linear-gradient"/><linearGradient id="linear-gradient-13" x1="38.377" y1="175.562" x2="195.519" y2="175.562" xlink:href="#linear-gradient"/><linearGradient id="linear-gradient-14" x1="38.377" y1="174.179" x2="195.519" y2="174.179" xlink:href="#linear-gradient"/><linearGradient id="linear-gradient-15" x1="38.377" y1="172.795" x2="195.519" y2="172.795" xlink:href="#linear-gradient"/><linearGradient id="linear-gradient-16" x1="38.377" y1="171.411" x2="195.519" y2="171.411" xlink:href="#linear-gradient"/><linearGradient id="linear-gradient-17" x1="38.377" y1="170.027" x2="195.519" y2="170.027" xlink:href="#linear-gradient"/><linearGradient id="linear-gradient-18" x1="38.377" y1="168.643" x2="195.519" y2="168.643" xlink:href="#linear-gradient"/><linearGradient id="linear-gradient-19" x1="38.377" y1="167.259" x2="195.519" y2="167.259" xlink:href="#linear-gradient"/><linearGradient id="linear-gradient-20" x1="38.377" y1="165.875" x2="195.519" y2="165.875" xlink:href="#linear-gradient"/><linearGradient id="linear-gradient-21" x1="38.377" y1="164.491" x2="195.519" y2="164.491" xlink:href="#linear-gradient"/><linearGradient id="linear-gradient-22" x1="38.377" y1="163.107" x2="195.519" y2="163.107" xlink:href="#linear-gradient"/><linearGradient id="linear-gradient-23" x1="38.377" y1="161.723" x2="195.519" y2="161.723" xlink:href="#linear-gradient"/><linearGradient id="linear-gradient-24" x1="38.377" y1="160.339" x2="195.519" y2="160.339" xlink:href="#linear-gradient"/><linearGradient id="linear-gradient-25" x1="38.377" y1="158.956" x2="195.519" y2="158.956" xlink:href="#linear-gradient"/><linearGradient id="linear-gradient-26" x1="38.377" y1="157.572" x2="195.519" y2="157.572" xlink:href="#linear-gradient"/><linearGradient id="linear-gradient-27" x1="38.377" y1="156.188" x2="195.519" y2="156.188" xlink:href="#linear-gradient"/><linearGradient id="linear-gradient-28" x1="38.377" y1="154.804" x2="195.519" y2="154.804" xlink:href="#linear-gradient"/><linearGradient id="linear-gradient-29" x1="38.377" y1="153.42" x2="195.519" y2="153.42" xlink:href="#linear-gradient"/><linearGradient id="linear-gradient-30" x1="38.377" y1="152.036" x2="195.519" y2="152.036" xlink:href="#linear-gradient"/><linearGradient id="linear-gradient-31" x1="38.377" y1="150.652" x2="195.519" y2="150.652" xlink:href="#linear-gradient"/><linearGradient id="linear-gradient-32" x1="38.377" y1="149.268" x2="195.519" y2="149.268" xlink:href="#linear-gradient"/><linearGradient id="linear-gradient-33" x1="38.377" y1="147.884" x2="195.519" y2="147.884" xlink:href="#linear-gradient"/><linearGradient id="linear-gradient-34" x1="38.377" y1="146.5" x2="195.519" y2="146.5" xlink:href="#linear-gradient"/><linearGradient id="linear-gradient-35" x1="38.377" y1="145.116" x2="195.519" y2="145.116" xlink:href="#linear-gradient"/><linearGradient id="linear-gradient-36" x1="38.377" y1="143.733" x2="195.519" y2="143.733" xlink:href="#linear-gradient"/><linearGradient id="linear-gradient-37" x1="38.377" y1="142.349" x2="195.519" y2="142.349" xlink:href="#linear-gradient"/><linearGradient id="linear-gradient-38" x1="38.377" y1="140.965" x2="195.519" y2="140.965" xlink:href="#linear-gradient"/><linearGradient id="linear-gradient-39" x1="38.377" y1="139.581" x2="195.519" y2="139.581" xlink:href="#linear-gradient"/><linearGradient id="linear-gradient-40" x1="38.377" y1="138.197" x2="195.519" y2="138.197" xlink:href="#linear-gradient"/><linearGradient id="linear-gradient-41" x1="38.377" y1="136.813" x2="195.519" y2="136.813" xlink:href="#linear-gradient"/><linearGradient id="linear-gradient-42" x1="38.377" y1="135.429" x2="195.519" y2="135.429" xlink:href="#linear-gradient"/><linearGradient id="linear-gradient-43" x1="40.783" y1="49.603" x2="69.78" y2="49.603" xlink:href="#linear-gradient"/><linearGradient id="linear-gradient-44" x1="42.525" y1="54.855" x2="69.78" y2="54.855" xlink:href="#linear-gradient"/><linearGradient id="linear-gradient-45" x1="14.919" y1="66.916" x2="50.935" y2="66.916" xlink:href="#linear-gradient"/><linearGradient id="linear-gradient-46" x1="18.89" y1="73.468" x2="47.689" y2="73.468" xlink:href="#linear-gradient"/><linearGradient id="linear-gradient-47" x1="-174.305" y1="74.22" x2="-138.289" y2="74.22" gradientTransform="matrix(-1, 0, 0, 1, 46.299, 0)" xlink:href="#linear-gradient"/><linearGradient id="linear-gradient-48" x1="-170.333" y1="80.772" x2="-141.535" y2="80.772" gradientTransform="matrix(-1, 0, 0, 1, 46.299, 0)" xlink:href="#linear-gradient"/><linearGradient id="linear-gradient-49" x1="-189.14" y1="120.179" x2="-153.124" y2="120.179" gradientTransform="matrix(-1, 0, 0, 1, 46.299, 0)" xlink:href="#linear-gradient"/><linearGradient id="linear-gradient-50" x1="203.889" y1="120.356" x2="208.319" y2="117.988" xlink:href="#linear-gradient"/><linearGradient id="linear-gradient-51" x1="202.586" y1="124.339" x2="227.861" y2="110.83" xlink:href="#linear-gradient"/><linearGradient id="linear-gradient-52" x1="202.128" y1="128.731" x2="227.403" y2="115.222" xlink:href="#linear-gradient"/><linearGradient id="linear-gradient-53" x1="201.383" y1="133.189" x2="226.658" y2="119.68" xlink:href="#linear-gradient"/><linearGradient id="linear-gradient-54" x1="201.047" y1="137.631" x2="217.287" y2="128.951" xlink:href="#linear-gradient"/><linearGradient id="linear-gradient-55" x1="38.377" y1="192.169" x2="195.519" y2="192.169" gradientUnits="userSpaceOnUse"><stop offset="0" stop-color="#e967cd"/><stop offset="0.159" stop-color="#eb6fc3"/><stop offset="0.429" stop-color="#f086a9"/><stop offset="0.772" stop-color="#f8aa7e"/><stop offset="1" stop-color="#fec55e"/></linearGradient><linearGradient id="linear-gradient-56" x1="159.382" y1="22.918" x2="173.746" y2="22.918" xlink:href="#linear-gradient-55"/><linearGradient id="linear-gradient-57" x1="224.204" y1="144.218" x2="233.65" y2="144.218" xlink:href="#linear-gradient-55"/><linearGradient id="linear-gradient-58" x1="145.673" y1="41.241" x2="152.274" y2="41.241" xlink:href="#linear-gradient-55"/><linearGradient id="linear-gradient-59" x1="199.944" y1="176.823" x2="206.545" y2="176.823" xlink:href="#linear-gradient"/><linearGradient id="linear-gradient-60" x1="248.272" y1="19.03" x2="254.873" y2="19.03" gradientTransform="matrix(-1, 0, 0, 1, 289.716, 0)" xlink:href="#linear-gradient-55"/><linearGradient id="linear-gradient-61" x1="241.177" y1="7.172" x2="246.767" y2="7.172" gradientTransform="matrix(-1, 0, 0, 1, 289.716, 0)" xlink:href="#linear-gradient"/><linearGradient id="linear-gradient-62" x1="255.609" y1="151.575" x2="261.198" y2="151.575" gradientTransform="matrix(-1, 0, 0, 1, 289.716, 0)" xlink:href="#linear-gradient"/><linearGradient id="linear-gradient-63" x1="229.963" y1="111.79" x2="242.782" y2="111.79" gradientTransform="matrix(-1, 0, 0, 1, 289.716, 0)" xlink:href="#linear-gradient-55"/><linearGradient id="linear-gradient-64" x1="-184.44" y1="66.317" x2="-148.058" y2="66.317" gradientTransform="matrix(-1, 0, 0, 1, 42.258, 0)" xlink:href="#linear-gradient"/><linearGradient id="linear-gradient-65" x1="-196.564" y1="114.479" x2="-160.182" y2="114.479" gradientTransform="matrix(-1, 0, 0, 1, 42.258, 0)" xlink:href="#linear-gradient"/><linearGradient id="linear-gradient-66" x1="56.3" y1="97.638" x2="72.205" y2="97.638" xlink:href="#linear-gradient"/><linearGradient id="linear-gradient-67" x1="17.226" y1="113.711" x2="45.4" y2="113.711" xlink:href="#linear-gradient"/><linearGradient id="linear-gradient-68" x1="69.13" y1="129.048" x2="85.588" y2="129.048" xlink:href="#linear-gradient"/><linearGradient id="linear-gradient-69" x1="-152.747" y1="153.541" x2="-127.457" y2="153.541" gradientTransform="matrix(-1, 0, 0, 1, 42.258, 0)" xlink:href="#linear-gradient"/><linearGradient id="linear-gradient-70" x1="-180.991" y1="34.974" x2="-156.104" y2="34.974" gradientTransform="matrix(-1, 0, 0, 1, 42.258, 0)" xlink:href="#linear-gradient"/><linearGradient id="linear-gradient-71" x1="-153.359" y1="22.918" x2="-121.668" y2="22.918" gradientTransform="matrix(-1, 0, 0, 1, 42.258, 0)" xlink:href="#linear-gradient"/><linearGradient id="linear-gradient-72" x1="18.89" y1="64.808" x2="53.4" y2="64.808" xlink:href="#linear-gradient"/><linearGradient id="linear-gradient-73" x1="43.724" y1="44.706" x2="71.898" y2="44.706" xlink:href="#linear-gradient"/><linearGradient id="linear-gradient-74" x1="9.775" y1="20.321" x2="32.799" y2="20.321" xlink:href="#linear-gradient"/><linearGradient id="linear-gradient-75" x1="53.962" y1="20.321" x2="61.66" y2="20.321" xlink:href="#linear-gradient-55"/><linearGradient id="linear-gradient-76" x1="55.055" y1="147.544" x2="57.545" y2="147.544" xlink:href="#linear-gradient-55"/><linearGradient id="linear-gradient-77" x1="0" y1="125.327" x2="5.582" y2="125.327" xlink:href="#linear-gradient-55"/><linearGradient id="linear-gradient-78" x1="0" y1="56.595" x2="5.582" y2="56.595" xlink:href="#linear-gradient-55"/><linearGradient id="linear-gradient-79" x1="-274.538" y1="80.239" x2="-268.955" y2="80.239" gradientTransform="matrix(-1, 0, 0, 1, -36.308, 0)" xlink:href="#linear-gradient-55"/><linearGradient id="linear-gradient-80" x1="-258.78" y1="5.013" x2="-250.811" y2="5.013" gradientTransform="matrix(-1, 0, 0, 1, -36.308, 0)" xlink:href="#linear-gradient-55"/><linearGradient id="linear-gradient-81" x1="-219.043" y1="59.079" x2="-215.549" y2="59.079" gradientTransform="matrix(-1, 0, 0, 1, -36.308, 0)" xlink:href="#linear-gradient-55"/><linearGradient id="linear-gradient-82" x1="-245.088" y1="161.601" x2="-241.594" y2="161.601" gradientTransform="matrix(-1, 0, 0, 1, -36.308, 0)" xlink:href="#linear-gradient-55"/></defs><title>header</title><ellipse class="cls-1" cx="116.948" cy="192.169" rx="78.571" ry="17.013"/><ellipse class="cls-2" cx="116.948" cy="190.786" rx="78.571" ry="17.013"/><ellipse class="cls-3" cx="116.948" cy="189.402" rx="78.571" ry="17.013"/><ellipse class="cls-4" cx="116.948" cy="188.018" rx="78.571" ry="17.013"/><ellipse class="cls-5" cx="116.948" cy="186.634" rx="78.571" ry="17.013"/><ellipse class="cls-6" cx="116.948" cy="185.25" rx="78.571" ry="17.013"/><ellipse class="cls-7" cx="116.948" cy="183.866" rx="78.571" ry="17.013"/><ellipse class="cls-8" cx="116.948" cy="182.482" rx="78.571" ry="17.013"/><ellipse class="cls-9" cx="116.948" cy="181.098" rx="78.571" ry="17.013"/><ellipse class="cls-10" cx="116.948" cy="179.714" rx="78.571" ry="17.013"/><ellipse class="cls-11" cx="116.948" cy="178.33" rx="78.571" ry="17.013"/><ellipse class="cls-12" cx="116.948" cy="176.946" rx="78.571" ry="17.013"/><ellipse class="cls-13" cx="116.948" cy="175.562" rx="78.571" ry="17.013"/><ellipse class="cls-14" cx="116.948" cy="174.179" rx="78.571" ry="17.013"/><ellipse class="cls-15" cx="116.948" cy="172.795" rx="78.571" ry="17.013"/><ellipse class="cls-16" cx="116.948" cy="171.411" rx="78.571" ry="17.013"/><ellipse class="cls-17" cx="116.948" cy="170.027" rx="78.571" ry="17.013"/><ellipse class="cls-18" cx="116.948" cy="168.643" rx="78.571" ry="17.013"/><ellipse class="cls-19" cx="116.948" cy="167.259" rx="78.571" ry="17.013"/><ellipse class="cls-20" cx="116.948" cy="165.875" rx="78.571" ry="17.013"/><ellipse class="cls-21" cx="116.948" cy="164.491" rx="78.571" ry="17.013"/><ellipse class="cls-22" cx="116.948" cy="163.107" rx="78.571" ry="17.013"/><ellipse class="cls-23" cx="116.948" cy="161.723" rx="78.571" ry="17.013"/><ellipse class="cls-24" cx="116.948" cy="160.339" rx="78.571" ry="17.013"/><ellipse class="cls-25" cx="116.948" cy="158.956" rx="78.571" ry="17.013"/><ellipse class="cls-26" cx="116.948" cy="157.572" rx="78.571" ry="17.013"/><ellipse class="cls-27" cx="116.948" cy="156.188" rx="78.571" ry="17.013"/><ellipse class="cls-28" cx="116.948" cy="154.804" rx="78.571" ry="17.013"/><ellipse class="cls-29" cx="116.948" cy="153.42" rx="78.571" ry="17.013"/><ellipse class="cls-30" cx="116.948" cy="152.036" rx="78.571" ry="17.013"/><ellipse class="cls-31" cx="116.948" cy="150.652" rx="78.571" ry="17.013"/><ellipse class="cls-32" cx="116.948" cy="149.268" rx="78.571" ry="17.013"/><ellipse class="cls-33" cx="116.948" cy="147.884" rx="78.571" ry="17.013"/><ellipse class="cls-34" cx="116.948" cy="146.5" rx="78.571" ry="17.013"/><ellipse class="cls-35" cx="116.948" cy="145.116" rx="78.571" ry="17.013"/><ellipse class="cls-36" cx="116.948" cy="143.733" rx="78.571" ry="17.013"/><ellipse class="cls-37" cx="116.948" cy="142.349" rx="78.571" ry="17.013"/><ellipse class="cls-38" cx="116.948" cy="140.965" rx="78.571" ry="17.013"/><ellipse class="cls-39" cx="116.948" cy="139.581" rx="78.571" ry="17.013"/><ellipse class="cls-40" cx="116.948" cy="138.197" rx="78.571" ry="17.013"/><ellipse class="cls-41" cx="116.948" cy="136.813" rx="78.571" ry="17.013"/><ellipse class="cls-42" cx="116.948" cy="135.429" rx="78.571" ry="17.013"/><g id="Layer_11" data-name="Layer 11"><path id="_Path_" data-name="&lt;Path&gt;" class="cls-43" d="M40.783,33.784a0.634,0.634,0,0,1,1.039-.6l24.6,14.2a2.324,2.324,0,0,1,1.047,1.8L69.78,65.421a0.633,0.633,0,0,1-1.035.6L43.881,52.279a2.7,2.7,0,0,1-.9-2.072Z"/><g id="_Group_" data-name="&lt;Group&gt;"><path class="cls-44" d="M69.78,65.421L67.855,51.88c-0.61.042-1.227,0.138-1.822,0.217-2.393.318-5.144,0.138-6.745-1.669-0.677-.765-1.16-1.819-2.133-2.132-1.309-.421-2.56.756-3.907,1.027a3.966,3.966,0,0,1-3.317-1.06A9.16,9.16,0,0,1,47.9,45.305c-0.445-.927-1.263-2.069-2.215-1.681-0.694.283-.828,1.182-1.176,1.846a2.619,2.619,0,0,1-1.985,1.317l0.458,3.421a2.7,2.7,0,0,0,.9,2.072L68.746,66.025A0.633,0.633,0,0,0,69.78,65.421Z"/></g><g id="_Group_2" data-name="&lt;Group&gt;"><path id="_Path_2" data-name="&lt;Path&gt;" class="cls-45" d="M14.919,47.268a0.788,0.788,0,0,1,1.291-.745L46.768,64.166a2.887,2.887,0,0,1,1.3,2.236l2.867,20.16a0.786,0.786,0,0,1-1.285.75L18.768,70.24a3.36,3.36,0,0,1-1.116-2.573Z"/><path id="_Compound_Path_" data-name="&lt;Compound Path&gt;" class="cls-46" d="M28.49,75.614l-3.341-1.847-1.466-12.58,3.292,1.949Zm-4.807-2.68-1.5-10.277L18.89,60.708,20.342,71.1Zm8.948,0.857-3.292-1.949,0.61,4.579,3.338,1.846ZM36.615,70.4l-3.292-1.949,1.427,10.62,3.34,1.846ZM47.091,82.158L43.8,80.209l0.556,4.177,3.333,1.842ZM41.435,73.91L38.144,71.96l1.4,9.767,3.339,1.846Z"/></g><g id="_Group_3" data-name="&lt;Group&gt;"><path id="_Path_3" data-name="&lt;Path&gt;" class="cls-47" d="M220.6,54.572a0.788,0.788,0,0,0-1.291-.745L188.754,71.469a2.887,2.887,0,0,0-1.3,2.236l-2.867,20.16a0.786,0.786,0,0,0,1.285.75l30.882-17.072a3.359,3.359,0,0,0,1.116-2.573Z"/><path id="_Compound_Path_2" data-name="&lt;Compound Path&gt;" class="cls-48" d="M208.548,70.441l3.292-1.949-1.466,12.58-3.341,1.847ZM215.18,78.4l1.452-10.389-3.292,1.949-1.5,10.277ZM202.235,85.57l3.338-1.846,0.61-4.579L202.892,81.1Zm-4.8,2.655,3.34-1.846,1.427-10.62-3.292,1.949Zm-9.6,5.306,3.333-1.842,0.556-4.177-3.292,1.949Zm4.8-2.655,3.339-1.846,1.4-9.767-3.292,1.949Z"/></g><g id="_Group_4" data-name="&lt;Group&gt;"><path id="_Path_4" data-name="&lt;Path&gt;" class="cls-49" d="M235.438,100.531a0.788,0.788,0,0,0-1.291-.745l-30.558,17.643a2.887,2.887,0,0,0-1.3,2.236l-2.867,20.16a0.786,0.786,0,0,0,1.285.75L231.59,123.5a3.359,3.359,0,0,0,1.116-2.573Z"/><polygon id="_Path_5" data-name="&lt;Path&gt;" class="cls-50" points="204.556 119.363 208.769 116.919 208.552 118.618 204.333 120.948 204.556 119.363"/><polygon id="_Path_6" data-name="&lt;Path&gt;" class="cls-51" points="203.926 123.487 231.844 107.372 231.627 109.072 203.703 125.072 203.926 123.487"/><polygon id="_Path_7" data-name="&lt;Path&gt;" class="cls-52" points="203.468 127.878 231.386 111.764 231.169 113.463 203.245 129.463 203.468 127.878"/><polygon id="_Path_8" data-name="&lt;Path&gt;" class="cls-53" points="202.723 132.337 230.641 116.222 230.424 117.921 202.5 133.922 202.723 132.337"/><polygon id="_Path_9" data-name="&lt;Path&gt;" class="cls-54" points="202.101 136.728 219.732 126.518 219.516 128.217 201.878 138.313 202.101 136.728"/></g></g><g id="Layer_8" data-name="Layer 8"><g id="_Group_5" data-name="&lt;Group&gt;"><g id="_Group_6" data-name="&lt;Group&gt;"><path class="cls-55" d="M101.75,142.925a3,3,0,0,1-2.9-2.225l-1.779-6.644a3,3,0,1,1,5.795-1.553l1.779,6.645A3,3,0,0,1,101.75,142.925Z"/></g><g id="_Group_7" data-name="&lt;Group&gt;"><path class="cls-55" d="M118.581,124.577a2.992,2.992,0,0,1-1.446-.374l-6.023-3.322a3,3,0,1,1,2.9-5.254l6.022,3.322A3,3,0,0,1,118.581,124.577Z"/></g><polygon id="_Path_10" data-name="&lt;Path&gt;" class="cls-56" points="85.991 59.217 102.497 68.582 100.018 86.071 85.991 78.112 85.991 59.217"/><g id="_Group_8" data-name="&lt;Group&gt;"><path id="_Path_11" data-name="&lt;Path&gt;" class="cls-56" d="M96.162,134.515L85.853,102.531,85.2,68.678a4.424,4.424,0,1,1,8.846-.171l0.633,32.646,8.488,30.828c0.7,2.34-.237,4.871-2.62,5.408A4.731,4.731,0,0,1,96.162,134.515Z"/></g><path id="_Path_12" data-name="&lt;Path&gt;" class="cls-57" d="M94.617,98.161L94.1,71.73l-8.51,13.316,0.259,17.485,3.318,10.295,11.691,10.8L96.194,106.67l-4-2.207a0.733,0.733,0,0,1-.349-0.9Z"/><g id="_Group_9" data-name="&lt;Group&gt;"><path id="_Path_13" data-name="&lt;Path&gt;" class="cls-56" d="M113.6,122.771a4.4,4.4,0,0,1-2.036-.5l-22.71-11.065a9.6,9.6,0,0,1-4.575-11.8l9.762-30.9c0.841-2.293,4.3-1.668,6.592-.826,1.363,0.5,3.331,2.231,4.375,6.807,0.789,3.461,2.041,8.105-1.707,12.022l-1.608,1.84-9.107,14.109a0.733,0.733,0,0,0,.349.9L115.644,115.9c2.168,1.126,3.012,3.06,1.886,5.228C116.742,122.64,115.2,122.771,113.6,122.771Z"/></g><g id="_Group_10" data-name="&lt;Group&gt;"><path id="_Path_14" data-name="&lt;Path&gt;" class="cls-58" d="M83.1,90.036a1.29,1.29,0,0,0,1.162.045L97.994,83.8a2,2,0,0,0,.039-3.493L78.358,68.938a4.217,4.217,0,0,0-4.264.026L60.111,76.535V76.9a0.629,0.629,0,0,0,.324.55Z"/><path id="_Path_15" data-name="&lt;Path&gt;" class="cls-59" d="M83.1,89.3a1.29,1.29,0,0,0,1.162.045l13.731-6.278a2,2,0,0,0,.039-3.493L78.358,68.2a4.217,4.217,0,0,0-4.264.026L60.111,76.535Z"/><path id="_Path_16" data-name="&lt;Path&gt;" class="cls-60" d="M81.717,88.348l12.491-5.567a1.729,1.729,0,0,0,.034-3.014L74.285,68.231l-13.9,8.259Z"/></g><g id="_Group_11" data-name="&lt;Group&gt;"><path id="_Path_17" data-name="&lt;Path&gt;" class="cls-55" d="M69.069,73.023a2.58,2.58,0,0,1-1.693-4.529L78.4,58.928a2.572,2.572,0,0,0,.768-1.171l6.058-19.238a2.58,2.58,0,1,1,4.922,1.55L84.086,59.307a7.734,7.734,0,0,1-2.307,3.518L70.759,72.392A2.57,2.57,0,0,1,69.069,73.023Z"/></g><path id="_Path_18" data-name="&lt;Path&gt;" class="cls-61" d="M68.225,72.135a2.581,2.581,0,0,1,.257-3.64L79.5,58.928a2.572,2.572,0,0,0,.768-1.171l6.058-19.238a2.571,2.571,0,0,1,1.9-1.733,2.572,2.572,0,0,0-3.009,1.733L79.164,57.757a2.572,2.572,0,0,1-.768,1.171l-11.02,9.566a2.57,2.57,0,0,0,2.236,4.465A2.566,2.566,0,0,1,68.225,72.135Z"/><g id="_Group_12" data-name="&lt;Group&gt;"><path id="_Path_19" data-name="&lt;Path&gt;" class="cls-62" d="M85.663,48.936A2.951,2.951,0,0,1,82.85,45.1l2.02-6.693A2.949,2.949,0,0,1,90.5,40.18l-2.02,6.693A2.951,2.951,0,0,1,85.663,48.936Z"/></g><path id="_Path_20" data-name="&lt;Path&gt;" class="cls-62" d="M93.724,34.31l7.691,4.44a8.84,8.84,0,0,1,4.42,7.656s-0.842,13.114-.827,17.492c0.013,3.819.827,15.255,0.827,15.255-5.3,3.354-21.853-8.271-21.853-8.271l1.106-16.014L83.983,39.935A6.494,6.494,0,0,1,93.724,34.31Z"/><path id="_Path_21" data-name="&lt;Path&gt;" class="cls-55" d="M92.414,42.163l-0.121-1.347s-0.389-3.949-.389-5.1l0.93-6.994h4.151v8.491C96.984,38.364,93.56,42.163,92.414,42.163Z"/><g id="_Group_13" data-name="&lt;Group&gt;"><path id="_Path_22" data-name="&lt;Path&gt;" class="cls-63" d="M56.3,57.407l0.323-.094a1.157,1.157,0,0,1,.9.107L81.172,70.959a2.254,2.254,0,0,1,1.015,1.746L84.321,88.8a0.466,0.466,0,0,1-.2.383l-0.358.248L59.305,75.7a2.624,2.624,0,0,1-.871-2.009Z"/><path id="_Path_23" data-name="&lt;Path&gt;" class="cls-59" d="M56.009,58.055a0.615,0.615,0,0,1,1.008-.582L80.881,71.25A2.254,2.254,0,0,1,81.9,73L84.134,88.74a0.614,0.614,0,0,1-1,.586L59.014,75.994a2.623,2.623,0,0,1-.871-2.009Z"/><path id="_Path_24" data-name="&lt;Path&gt;" class="cls-64" d="M67.982,72.145a4.456,4.456,0,0,1,2.389,2.726c0.334,1.158-.194,1.826-1.173,1.483a4.48,4.48,0,0,1-2.389-2.726C66.474,72.471,67,71.8,67.982,72.145Z"/></g><path id="_Path_25" data-name="&lt;Path&gt;" class="cls-65" d="M105.008,63.9c-0.01-3.012.385-10.161,0.633-14.327l-0.48-3.02a2.578,2.578,0,0,0-2.954-2.143c-1.408.224,0.805,14.283,0.805,14.283,0.647,4.061-2.162,8.86-5.54,11.205L90.324,74.86c1.613,0.92,3.4,1.865,5.192,2.678l4.9-3.4a15.869,15.869,0,0,0,4.776-5.281C105.088,66.861,105.012,65.039,105.008,63.9Z"/><g id="_Group_14" data-name="&lt;Group&gt;"><path id="_Path_26" data-name="&lt;Path&gt;" class="cls-55" d="M87.685,80.573a2.581,2.581,0,0,1-1.474-4.7l11.261-7.82a10.838,10.838,0,0,0,4.5-10.547l-1.906-11.988a2.581,2.581,0,0,1,5.1-.81L107.067,56.7a16.029,16.029,0,0,1-6.651,15.6l-11.261,7.82A2.57,2.57,0,0,1,87.685,80.573Z"/></g><g id="_Group_15" data-name="&lt;Group&gt;"><path id="_Path_27" data-name="&lt;Path&gt;" class="cls-62" d="M103.409,54.587A2.95,2.95,0,0,1,100.485,52l-0.8-6.525a2.949,2.949,0,0,1,5.855-.718l0.8,6.525A2.953,2.953,0,0,1,103.409,54.587Z"/></g><path id="_Path_28" data-name="&lt;Path&gt;" class="cls-55" d="M89.141,75.241H86.225a0.754,0.754,0,0,1-.754-0.754h0a0.754,0.754,0,0,1,.754-0.754h2.916a0.754,0.754,0,0,1,.754.754h0A0.754,0.754,0,0,1,89.141,75.241Z"/><path id="_Path_29" data-name="&lt;Path&gt;" class="cls-62" d="M98.937,140.5l-1.049,3.512a10.742,10.742,0,0,1-2.514,4.333l-3.139,3.3-1.126.435a1.436,1.436,0,0,0-.536,2.315h0a4.006,4.006,0,0,0,5.156.616l13.131-8.72a2.009,2.009,0,0,0,.576-2.765l-4.288-4.6-0.829.323h0a1.913,1.913,0,0,1-1.055,1.437l-1.209.588a2.022,2.022,0,0,1-2.645-.824h0A0.258,0.258,0,0,0,98.937,140.5Z"/><g id="_Group_16" data-name="&lt;Group&gt;"><path id="_Path_30" data-name="&lt;Path&gt;" class="cls-66" d="M99.415,140.46l-0.006-.009a0.242,0.242,0,0,0-.189-0.119A2.029,2.029,0,0,0,99.415,140.46Z"/><path id="_Path_31" data-name="&lt;Path&gt;" class="cls-66" d="M109.435,143.527l-0.737-.737a2.009,2.009,0,0,1-.576,2.765l-13.131,8.72a4,4,0,0,1-4.584-.11,1.423,1.423,0,0,0,.165.231,4.006,4.006,0,0,0,5.156.616l13.131-8.72A2.009,2.009,0,0,0,109.435,143.527Z"/></g><g id="_Group_17" data-name="&lt;Group&gt;"><path id="_Path_32" data-name="&lt;Path&gt;" class="cls-56" d="M99.563,145.825l0.258-.691-2.061-.768c-0.079.233-.158,0.466-0.252,0.693Z"/><path id="_Path_33" data-name="&lt;Path&gt;" class="cls-56" d="M97.594,149.262l0.258-.691-2.027-.756c-0.15.179-.291,0.365-0.452,0.534l-0.059.062Z"/><path id="_Path_34" data-name="&lt;Path&gt;" class="cls-56" d="M98.579,147.544l0.258-.691-1.863-.695c-0.122.219-.259,0.429-0.4,0.64Z"/><polygon id="_Path_35" data-name="&lt;Path&gt;" class="cls-56" points="100.805 143.415 98.341 142.497 98.13 143.205 100.547 144.107 100.805 143.415"/></g><path id="_Path_36" data-name="&lt;Path&gt;" class="cls-62" d="M116.778,123.871l1.765,3.212a10.743,10.743,0,0,1,1.323,4.832l0.144,4.549-0.48,1.108a1.436,1.436,0,0,0,1.273,2.007h0a4.006,4.006,0,0,0,4.057-3.241l3-15.474a2.009,2.009,0,0,0-1.566-2.35l-6.286-.174-0.352.817h0a1.913,1.913,0,0,1,.283,1.76l-0.429,1.274a2.022,2.022,0,0,1-2.443,1.306h0A0.258,0.258,0,0,0,116.778,123.871Z"/><g id="_Group_18" data-name="&lt;Group&gt;"><path id="_Path_37" data-name="&lt;Path&gt;" class="cls-66" d="M117.082,123.5l-0.011,0a0.242,0.242,0,0,0-.217.051A1.981,1.981,0,0,0,117.082,123.5Z"/><path id="_Path_38" data-name="&lt;Path&gt;" class="cls-66" d="M126.3,118.514l-1.043.008a2.009,2.009,0,0,1,1.566,2.35l-3,15.474a4,4,0,0,1-3.3,3.189,1.431,1.431,0,0,0,.28.044,4.006,4.006,0,0,0,4.057-3.241l3-15.474A2.009,2.009,0,0,0,126.3,118.514Z"/></g><g id="_Group_19" data-name="&lt;Group&gt;"><path id="_Path_39" data-name="&lt;Path&gt;" class="cls-56" d="M121.008,127.159l-0.311-.669-1.994.929c0.111,0.22.221,0.44,0.316,0.666Z"/><path id="_Path_40" data-name="&lt;Path&gt;" class="cls-56" d="M122.074,130.973l-0.311-.669-1.961.913c0.023,0.232.056,0.463,0.063,0.7l0,0.086Z"/><path id="_Path_41" data-name="&lt;Path&gt;" class="cls-56" d="M121.541,129.067l-0.311-.669-1.8.84c0.071,0.241.124,0.486,0.178,0.731Z"/><polygon id="_Path_42" data-name="&lt;Path&gt;" class="cls-56" points="120.163 124.583 117.779 125.694 118.136 126.342 120.475 125.252 120.163 124.583"/></g><polygon id="_Path_43" data-name="&lt;Path&gt;" class="cls-56" points="97.145 35.445 92.414 42.163 96.653 46.157 97.85 36.107 97.145 35.445"/><polygon id="_Path_44" data-name="&lt;Path&gt;" class="cls-56" points="92.414 42.163 91.751 34.803 88.297 44.56 92.414 42.163"/><path id="_Rectangle_" data-name="&lt;Rectangle&gt;" class="cls-55" d="M86.687,20.061h8.955a0,0,0,0,1,0,0V36.97a0,0,0,0,1,0,0h-3.4A10.874,10.874,0,0,1,81.373,26.1v-0.72A5.315,5.315,0,0,1,86.687,20.061Z" transform="translate(-3.42 14.515) rotate(-9.198)"/><path id="_Path_45" data-name="&lt;Path&gt;" class="cls-61" d="M81.963,28.184l-0.47-2.9a4.024,4.024,0,0,1,3.329-4.616l9.4-1.521L94.2,19.03,84.085,20.667a4.024,4.024,0,0,0-3.329,4.616l0.47,2.9a9.94,9.94,0,0,0,10.067,8.343A9.947,9.947,0,0,1,81.963,28.184Z"/><g id="_Group_20" data-name="&lt;Group&gt;"><path class="cls-59" d="M81.88,16.976c-1.143.813-2.271,1.73-2.414,3.124a7.294,7.294,0,0,0,.16,1.98c0.248,1.534.342,3.018,1.288,4.291,0.015-.695-0.346-3.918,1.179-3.351a4.521,4.521,0,0,1,1.533,1.45,2.7,2.7,0,0,0,2.217.787c1.926-.228,3.108-2.422,5.007-2.816a1.889,1.889,0,0,1,1.258.125,1.766,1.766,0,0,1,.563.493c1.558,2.02-1.054,4.367.082,6.422a0.23,0.23,0,0,0,.086.1c0.126,0.066.247-.1,0.3-0.229,0.554-1.421,1.558-2.082,1.863-.2,0.17,1.106-.578,5.461,1.181,5.64,1.863,0.19,2.206-2.951,2.737-4.139,0.417-.934.211-1.9,0.5-2.867a10.112,10.112,0,0,0,.019-4.284,6.015,6.015,0,0,1-.2-1.713,11.783,11.783,0,0,0,.221-2.347A4.04,4.04,0,0,0,98.318,16.7a5.945,5.945,0,0,0-2.413-1.164,0.925,0.925,0,0,1-.284-0.122,1.7,1.7,0,0,1-.353-0.933,1.4,1.4,0,0,0-1.06-.845,4.135,4.135,0,0,0-1.41.02c-1.625.21-3.229,0.406-4.857,0.527a8.134,8.134,0,0,0-3.806,1.155c-0.327.21-.634,0.451-0.939,0.692C82.8,16.343,82.337,16.651,81.88,16.976Z"/></g><g id="_Group_21" data-name="&lt;Group&gt;" class="cls-67"><g id="_Group_22" data-name="&lt;Group&gt;"><path class="cls-68" d="M80.363,22.449a7.294,7.294,0,0,1-.16-1.98c0.143-1.394,1.271-2.312,2.414-3.124,0.457-.325.916-0.633,1.316-0.948,0.306-.241.612-0.481,0.939-0.692a8.136,8.136,0,0,1,3.806-1.155c1.628-.121,3.232-0.316,4.857-0.527A4.18,4.18,0,0,1,94.93,14a1.626,1.626,0,0,0-.722-0.367,4.135,4.135,0,0,0-1.41.02c-1.625.21-3.229,0.406-4.857,0.527a8.134,8.134,0,0,0-3.806,1.155c-0.327.21-.634,0.451-0.939,0.692-0.4.315-.859,0.623-1.316,0.948-1.143.812-2.271,1.73-2.414,3.124a7.294,7.294,0,0,0,.16,1.98c0.248,1.534.342,3.018,1.288,4.291,0-.212-0.025-0.66-0.026-1.164A19.674,19.674,0,0,1,80.363,22.449Z"/></g></g><circle id="_Path_46" data-name="&lt;Path&gt;" class="cls-55" cx="95.377" cy="28.873" r="1.768"/></g></g><g id="Layer_12" data-name="Layer 12"><ellipse class="cls-69" cx="116.948" cy="192.169" rx="78.571" ry="17.013"/></g><g id="Layer_9" data-name="Layer 9"><g id="_Group_23" data-name="&lt;Group&gt;"><path id="_Path_47" data-name="&lt;Path&gt;" class="cls-70" d="M144.274,179.132l-1.14,9.974a4.227,4.227,0,0,0,.154,1.7l1.359,4.491a2.179,2.179,0,0,0,3.329.454l2.569-3.719a4.228,4.228,0,0,0,.734-2.045l0.559-9.735a2.053,2.053,0,0,0-1.781-2.153l-3.818-.5A1.746,1.746,0,0,0,144.274,179.132Z"/><path id="_Path_48" data-name="&lt;Path&gt;" class="cls-71" d="M151.223,186.988l0.447-7.645a2.046,2.046,0,0,0-1.614-1.239l-3.8-.5a1.755,1.755,0,0,0-.578.292l-0.673,8.67a3.116,3.116,0,0,0,3,3.356h0A3.116,3.116,0,0,0,151.223,186.988Z"/><g id="_Group_24" data-name="&lt;Group&gt;"><path id="_Path_49" data-name="&lt;Path&gt;" class="cls-71" d="M148.367,184.036a2.582,2.582,0,0,1-2.5-3.214l2.239-8.853a2.58,2.58,0,1,1,5,1.266l-2.239,8.853A2.581,2.581,0,0,1,148.367,184.036Z"/></g><g id="_Group_25" data-name="&lt;Group&gt;"><path id="_Path_50" data-name="&lt;Path&gt;" class="cls-71" d="M139.346,162.146a2.58,2.58,0,0,1-1.382-4.761l5.446-3.444a2.58,2.58,0,0,1,2.758,4.362l-5.446,3.444A2.568,2.568,0,0,1,139.346,162.146Z"/></g><g id="_Group_26" data-name="&lt;Group&gt;"><path id="_Path_51" data-name="&lt;Path&gt;" class="cls-62" d="M144.666,159.812c-1.876-.108-3.085-0.31-3.563-1.375a3.345,3.345,0,0,1,1.616-4.765l24.945-14.356a0.345,0.345,0,0,0,.175-0.368l-6.592-25.2c-0.407-2.2,2.153-4.318,4.354-4.725a4.054,4.054,0,0,1,4.726,3.249l5.486,25.2a8.438,8.438,0,0,1-4.263,8.962l-24.946,12.881A3.213,3.213,0,0,1,144.666,159.812Z"/></g><path id="_Path_52" data-name="&lt;Path&gt;" class="cls-65" d="M175.814,137.473l-5.486-25.2a4.053,4.053,0,0,0-4.362-3.3,4.052,4.052,0,0,1,3.625,3.3l5.486,25.2a8.438,8.438,0,0,1-4.263,8.962l-24.946,12.881a3.433,3.433,0,0,1-1.374.485l0.172,0.012a3.213,3.213,0,0,0,1.939-.5l24.946-12.881A8.438,8.438,0,0,0,175.814,137.473Z"/><g id="_Group_27" data-name="&lt;Group&gt;" class="cls-72"><polygon id="_Path_53" data-name="&lt;Path&gt;" class="cls-73" points="162.129 151.299 163.318 146.663 163.318 141.818 154.158 147.09 152.169 156.443 162.129 151.299"/></g><g id="_Group_28" data-name="&lt;Group&gt;"><path id="_Path_54" data-name="&lt;Path&gt;" class="cls-62" d="M150.051,177.841l-0.635.014a4.528,4.528,0,0,1-2.529-5.251l5.74-26.988-1.106-22.7-0.432-1.2c-1.637-4.541-.846-12.254,3.525-13.284,1.26-.3,1.724-1.6,2.436-1.6a4.424,4.424,0,0,1,4.423,4.423v35.411l-7.126,27.787A4.426,4.426,0,0,1,150.051,177.841Z"/></g><path id="_Path_55" data-name="&lt;Path&gt;" class="cls-74" d="M153.869,107.9l15.467-8.862v18.384l-9.627,5.558a4.6,4.6,0,0,1-6.9-3.986Z"/><g id="_Group_29" data-name="&lt;Group&gt;"><path id="_Path_56" data-name="&lt;Path&gt;" class="cls-75" d="M177.006,125.249a1.29,1.29,0,0,1-1.162.045l-13.731-6.278a2,2,0,0,1-.039-3.493l19.675-11.373a4.217,4.217,0,0,1,4.264.026L200,111.749v0.367a0.629,0.629,0,0,1-.323.55Z"/><path id="_Path_57" data-name="&lt;Path&gt;" class="cls-59" d="M177.006,124.512a1.29,1.29,0,0,1-1.162.045l-13.731-6.278a2,2,0,0,1-.039-3.493l19.675-11.373a4.217,4.217,0,0,1,4.264.026L200,111.749Z"/><path id="_Path_58" data-name="&lt;Path&gt;" class="cls-60" d="M178.389,123.561L165.9,117.994a1.729,1.729,0,0,1-.034-3.014l19.957-11.537,13.9,8.259Z"/></g><g id="_Group_30" data-name="&lt;Group&gt;"><path class="cls-76" d="M172.184,58.227c-0.609-1.54-2.251-2.378-3.8-2.962l0.17,0.359a2.934,2.934,0,0,1-.582-1.72,11.159,11.159,0,0,0-5.493.259,13.331,13.331,0,0,0-5.931,4.646c-1.583,2-2.906,4.2-4.6,6.1-0.717.8-1.5,1.553-2.166,2.4a11.845,11.845,0,0,0-1,12.805c0.907,1.617,2.508,3.132,4.351,2.928a5.765,5.765,0,0,0,1.777-.6,22.114,22.114,0,0,0,5.149-3.107,9.309,9.309,0,0,0,3.17-5.007c0.224-1.075.2-2.189,0.408-3.267a12.7,12.7,0,0,1,1.343-3.451,8.869,8.869,0,0,1,1.994-2.743c1.3-1.09,3.1-1.485,4.291-2.685A3.794,3.794,0,0,0,172.184,58.227Z"/></g><g id="_Group_31" data-name="&lt;Group&gt;"><path id="_Path_59" data-name="&lt;Path&gt;" class="cls-71" d="M184.651,113.148a2.578,2.578,0,0,1-2.094-1.07L170.671,95.615,164.834,74.2a2.58,2.58,0,0,1,4.979-1.357l5.59,20.512,11.337,15.7A2.581,2.581,0,0,1,184.651,113.148Z"/></g><path id="_Path_60" data-name="&lt;Path&gt;" class="cls-61" d="M186.741,109.057L175.4,93.354l-5.59-20.512a2.574,2.574,0,0,0-2.832-1.867,2.58,2.58,0,0,1,2.095,1.867l5.591,20.512L186,109.057a2.578,2.578,0,0,1-1.669,4.054A2.562,2.562,0,0,0,186.741,109.057Z"/><g id="_Group_32" data-name="&lt;Group&gt;"><path id="_Path_61" data-name="&lt;Path&gt;" class="cls-70" d="M169.051,81.918a2.951,2.951,0,0,1-2.844-2.174L164.478,74.3a2.949,2.949,0,1,1,5.691-1.551l1.729,5.448A2.951,2.951,0,0,1,169.051,81.918Z"/></g><path id="_Path_62" data-name="&lt;Path&gt;" class="cls-70" d="M151.673,77.534l11.7-6.967a4.4,4.4,0,0,1,6.649,3.779v6.608l1.53,2.423a2.2,2.2,0,0,1,.084,2.207l-1.615,3.05s-0.728,11.181,0,18.515c0,0-10.323,9.636-19.654,8.148,0,0,.989-12.573.847-15.3-0.53-10.169-3.045-16.3-3.045-16.3A7.176,7.176,0,0,1,151.673,77.534Z"/><path id="_Path_63" data-name="&lt;Path&gt;" class="cls-65" d="M171.551,83.377l-1.53-2.423V78.4c0-2.711-.737,2.553-0.737,2.553l1.53,2.423a2.2,2.2,0,0,1,.084,2.207l-1.615,3.05a186.79,186.79,0,0,0,.38,18.835l0.357-.32c-0.728-7.334,0-18.515,0-18.515l1.615-3.05A2.2,2.2,0,0,0,171.551,83.377Z"/><path id="_Path_64" data-name="&lt;Path&gt;" class="cls-57" d="M151.657,92.044A6.147,6.147,0,0,0,155.13,93.5a0.577,0.577,0,0,1,.462.782l-3.075,7.933Z"/><path id="_Rectangle_2" data-name="&lt;Rectangle&gt;" class="cls-71" d="M155.876,55.589h8.9a5.133,5.133,0,0,1,5.133,5.133v0a11.746,11.746,0,0,1-11.746,11.746h-2.285a0,0,0,0,1,0,0V55.589A0,0,0,0,1,155.876,55.589Z"/><path id="_Path_65" data-name="&lt;Path&gt;" class="cls-61" d="M165.6,55.589h-0.737a4.3,4.3,0,0,1,4.3,4.3v2.728a9.848,9.848,0,0,1-9.847,9.848h0.737a9.847,9.847,0,0,0,9.847-9.848V59.893A4.3,4.3,0,0,0,165.6,55.589Z"/><path id="_Path_66" data-name="&lt;Path&gt;" class="cls-71" d="M157.951,75.394h0a2.075,2.075,0,0,1-2.075-2.075V64.827h4.151v8.491A2.075,2.075,0,0,1,157.951,75.394Z"/><g id="_Group_33" data-name="&lt;Group&gt;"><path id="_Path_67" data-name="&lt;Path&gt;" class="cls-71" d="M169.291,115.579a2.57,2.57,0,0,1-1.31-.359l-13.29-7.849A14.638,14.638,0,0,1,147.615,96.4l-1.543-14.159a2.58,2.58,0,0,1,5.131-.559l1.542,14.159a9.455,9.455,0,0,0,4.57,7.084l13.291,7.849A2.581,2.581,0,0,1,169.291,115.579Z"/></g><g id="_Group_34" data-name="&lt;Group&gt;"><path id="_Path_68" data-name="&lt;Path&gt;" class="cls-70" d="M149.307,91.788a2.949,2.949,0,0,1-2.928-2.63l-0.673-6.876a2.949,2.949,0,1,1,5.863-.639l0.673,6.876a2.949,2.949,0,0,1-2.612,3.251A2.985,2.985,0,0,1,149.307,91.788Z"/></g><g id="_Group_35" data-name="&lt;Group&gt;"><path class="cls-76" d="M170.318,53.887c-0.143-.819-1.993-1.609-2.663-1.99a20.383,20.383,0,0,0-11.473-2.608c-3.143.232-5.378,0.794-6.963,3.856-1.075,2.076-1.577,4.439-2.867,6.389a19.977,19.977,0,0,0-1.889,2.826c-0.875,2-.307,4.285.018,6.44,0.679,4.49-1.661,5.695-3.976,8.929a6.334,6.334,0,0,0,5.047,10.02c3.119,0.051,5.66-2.234,7.091-4.826,0.677-1.226.783-2.75,1.448-3.9,0.924-1.6,2.355-2.531,2.616-4.532a11.779,11.779,0,0,0-.058-2.426c-0.153-1.983,0-4.17,1.343-5.637,0.4-.435.883-0.783,1.305-1.195a5.936,5.936,0,0,0,1.665-5.215,2.206,2.206,0,0,1-.046-1.1,1.87,1.87,0,0,1,1.657-.917c2.146-.3,4.186-0.33,6.125-1.4a2.229,2.229,0,0,0,1.545-1.841A2.279,2.279,0,0,0,170.318,53.887Z"/></g><g id="_Group_36" data-name="&lt;Group&gt;" class="cls-77"><path class="cls-78" d="M170.318,53.887c-0.143-.819-1.993-1.609-2.663-1.99a20.367,20.367,0,0,0-3.742-1.652c-0.142-.047-0.287-0.086-0.43-0.129a20.316,20.316,0,0,1,3.067,1.413c0.67,0.381,2.52,1.171,2.663,1.991a2.277,2.277,0,0,1-.075.869,2.229,2.229,0,0,1-1.545,1.841c-1.939,1.067-3.978,1.1-6.125,1.4a1.87,1.87,0,0,0-1.657.917,2.206,2.206,0,0,0,.046,1.1,5.936,5.936,0,0,1-1.665,5.215c-0.422.412-.907,0.76-1.305,1.195-1.343,1.466-1.5,3.654-1.343,5.637a11.779,11.779,0,0,1,.058,2.426c-0.261,2-1.692,2.928-2.616,4.532-0.664,1.152-.77,2.676-1.448,3.9-1.431,2.591-3.973,4.877-7.091,4.826a6.039,6.039,0,0,1-1.33-.187,6.229,6.229,0,0,0,2.436.556c3.119,0.051,5.66-2.234,7.091-4.826,0.677-1.226.783-2.75,1.448-3.9,0.924-1.6,2.355-2.531,2.616-4.532a11.779,11.779,0,0,0-.058-2.426c-0.153-1.983,0-4.17,1.343-5.637,0.4-.435.883-0.783,1.305-1.195a5.936,5.936,0,0,0,1.665-5.215,2.2,2.2,0,0,1-.046-1.1,1.87,1.87,0,0,1,1.657-.917c2.146-.3,4.185-0.33,6.125-1.4a2.229,2.229,0,0,0,1.545-1.841A2.279,2.279,0,0,0,170.318,53.887Z"/></g><g id="_Group_37" data-name="&lt;Group&gt;"><path id="_Path_69" data-name="&lt;Path&gt;" class="cls-63" d="M203.806,92.62l-0.323-.094a1.157,1.157,0,0,0-.9.107l-23.652,13.539a2.254,2.254,0,0,0-1.015,1.746l-2.134,16.092a0.466,0.466,0,0,0,.2.383l0.358,0.248L200.8,110.916a2.623,2.623,0,0,0,.871-2.009Z"/><path id="_Path_70" data-name="&lt;Path&gt;" class="cls-59" d="M204.1,93.268a0.615,0.615,0,0,0-1.008-.582l-23.863,13.778a2.254,2.254,0,0,0-1.015,1.746l-2.239,15.743a0.614,0.614,0,0,0,1,.586l24.117-13.332a2.623,2.623,0,0,0,.871-2.009Z"/><path id="_Path_71" data-name="&lt;Path&gt;" class="cls-64" d="M192.124,107.358a4.456,4.456,0,0,0-2.389,2.726c-0.334,1.158.194,1.826,1.173,1.483a4.48,4.48,0,0,0,2.389-2.726C193.632,107.684,193.1,107.017,192.124,107.358Z"/></g><path id="_Path_72" data-name="&lt;Path&gt;" class="cls-71" d="M137.373,157.844l-4.509,2.062a1.084,1.084,0,0,0-.56,1.376l7.114,18.419h0a2.491,2.491,0,0,0,2.037-2.5l-1.5-15.055Z"/><path id="_Path_73" data-name="&lt;Path&gt;" class="cls-70" d="M136.763,158.123c0-.008-1.511.7-1.514,0.693l-2.385,1.091a1.084,1.084,0,0,0-.56,1.376l7.115,18.419a2.491,2.491,0,0,0,2.037-2.5l-0.779-7.808C137.281,166.229,136.763,158.123,136.763,158.123Z"/><path id="_Path_74" data-name="&lt;Path&gt;" class="cls-71" d="M170.733,110.412h-3.063a0.742,0.742,0,0,1-.741-0.742h0a0.742,0.742,0,0,1,.741-0.741h3.063a0.742,0.742,0,0,1,.742.741h0A0.742,0.742,0,0,1,170.733,110.412Z"/><g id="_Group_38" data-name="&lt;Group&gt;"><path id="_Compound_Path_3" data-name="&lt;Compound Path&gt;" class="cls-74" d="M162.56,66.292a1.439,1.439,0,0,1-.727-0.189,1.805,1.805,0,0,1-.8-1.658,4.97,4.97,0,0,1,2.255-3.906h0a1.628,1.628,0,0,1,2.628,1.518,4.99,4.99,0,0,1-2.254,3.9A2.231,2.231,0,0,1,162.56,66.292Zm1.1-5.114a4.215,4.215,0,0,0-1.885,3.265,1.131,1.131,0,0,0,.429,1.021,1.112,1.112,0,0,0,1.094-.141,4.236,4.236,0,0,0,1.886-3.266,1.111,1.111,0,0,0-.425-1.018,1.132,1.132,0,0,0-1.1.14h0Z"/></g><g id="_Group_39" data-name="&lt;Group&gt;"><path id="_Compound_Path_4" data-name="&lt;Compound Path&gt;" class="cls-74" d="M167.974,66.292a1.33,1.33,0,0,1-.672-0.176,1.659,1.659,0,0,1-.737-1.525,4.448,4.448,0,0,1,2.049-3.549h0a1.5,1.5,0,0,1,2.421,1.4,4.466,4.466,0,0,1-2.048,3.547A2.046,2.046,0,0,1,167.974,66.292Zm1.007-4.61a3.753,3.753,0,0,0-1.679,2.908,0.786,0.786,0,0,0,1.316.76,3.774,3.774,0,0,0,1.68-2.909,0.786,0.786,0,0,0-1.317-.76h0Z"/></g><g id="_Group_40" data-name="&lt;Group&gt;"><rect id="_Path_75" data-name="&lt;Path&gt;" class="cls-74" x="161.009" y="62.015" width="0.737" height="1.027" transform="translate(58.56 201.745) rotate(-74.732)"/></g><g id="_Group_41" data-name="&lt;Group&gt;"><path id="_Path_76" data-name="&lt;Path&gt;" class="cls-74" d="M165.414,63.49l-0.359-.644a2.654,2.654,0,0,1,1.882-.34,0.958,0.958,0,0,1,.565.638l-0.706.213a0.221,0.221,0,0,0-.135-0.167A2.007,2.007,0,0,0,165.414,63.49Z"/></g></g></g><g id="Layer_10" data-name="Layer 10"><path class="cls-79" d="M171.858,26.416a2.321,2.321,0,0,1-.771,1.778L160.27,34.032a0.543,0.543,0,0,1-.888-0.519l1.981-13.931a2,2,0,0,1,.9-1.545L172.854,11.8a0.544,0.544,0,0,1,.892.515Z"/><path class="cls-80" d="M232.408,146.518a1.527,1.527,0,0,1-.507,1.169l-7.113,3.84a0.357,0.357,0,0,1-.584-0.341l1.3-9.161a1.312,1.312,0,0,1,.591-1.016l6.966-4.1a0.358,0.358,0,0,1,.587.339Z"/><path class="cls-81" d="M151.406,42.848a1.067,1.067,0,0,1-.354.817l-4.971,2.683a0.25,0.25,0,0,1-.408-0.238l0.91-6.4A0.917,0.917,0,0,1,147,39l4.868-2.864a0.25,0.25,0,0,1,.41.237Z"/><path class="cls-82" d="M205.677,178.43a1.067,1.067,0,0,1-.354.817l-4.971,2.683a0.25,0.25,0,0,1-.408-0.238l0.91-6.4a0.917,0.917,0,0,1,.413-0.71l4.868-2.864a0.25,0.25,0,0,1,.41.237Z"/><path class="cls-83" d="M34.843,14.159a0.25,0.25,0,0,1,.41-0.237l4.868,2.864a0.916,0.916,0,0,1,.413.71l0.91,6.4a0.25,0.25,0,0,1-.408.238l-4.971-2.683a1.067,1.067,0,0,1-.354-0.817Z"/><path class="cls-84" d="M42.95,3.048a0.212,0.212,0,0,1,.347-0.2l4.122,2.426a0.776,0.776,0,0,1,.349.6L48.539,11.3a0.211,0.211,0,0,1-.345.2L43.984,9.225a0.9,0.9,0,0,1-.3-0.692Z"/><path class="cls-85" d="M28.518,147.451a0.212,0.212,0,0,1,.347-0.2l4.122,2.425a0.776,0.776,0,0,1,.35.6l0.771,5.421a0.211,0.211,0,0,1-.346.2l-4.209-2.272a0.9,0.9,0,0,1-.3-0.692Z"/><path class="cls-86" d="M46.934,102.332a0.486,0.486,0,0,1,.8-0.46l9.454,5.563a1.78,1.78,0,0,1,.8,1.379l1.768,12.433a0.485,0.485,0,0,1-.792.463L49.307,116.5a2.072,2.072,0,0,1-.688-1.587Z"/><path id="_Path_77" data-name="&lt;Path&gt;" class="cls-87" d="M226.7,46.47a0.8,0.8,0,0,0-1.3-.753L194.525,63.539a2.917,2.917,0,0,0-1.313,2.259l-2.9,20.365a0.794,0.794,0,0,0,1.3.758l31.2-17.245a3.394,3.394,0,0,0,1.127-2.6Z"/><path id="_Path_78" data-name="&lt;Path&gt;" class="cls-88" d="M238.821,94.631a0.8,0.8,0,0,0-1.3-.753L206.649,111.7a2.916,2.916,0,0,0-1.313,2.259l-2.9,20.365a0.794,0.794,0,0,0,1.3.758l31.2-17.246a3.393,3.393,0,0,0,1.127-2.6Z"/><path id="_Path_79" data-name="&lt;Path&gt;" class="cls-89" d="M56.3,88.961a0.348,0.348,0,0,1,.57-0.329l13.494,7.791a1.275,1.275,0,0,1,.574.987l1.266,8.9a0.347,0.347,0,0,1-.568.331L58,99.106a1.483,1.483,0,0,1-.493-1.136Z"/><path id="_Path_80" data-name="&lt;Path&gt;" class="cls-90" d="M17.226,98.34a0.616,0.616,0,0,1,1.01-.583l23.905,13.8a2.258,2.258,0,0,1,1.017,1.749L45.4,129.079a0.615,0.615,0,0,1-1.005.587L20.236,116.311a2.628,2.628,0,0,1-.873-2.013Z"/><path id="_Path_81" data-name="&lt;Path&gt;" class="cls-91" d="M69.13,120.069a0.36,0.36,0,0,1,.59-0.341l13.965,8.063a1.319,1.319,0,0,1,.594,1.022l1.31,9.213a0.359,0.359,0,0,1-.587.343l-14.113-7.8a1.535,1.535,0,0,1-.51-1.176Z"/><path id="_Path_82" data-name="&lt;Path&gt;" class="cls-92" d="M195.005,139.744a0.553,0.553,0,0,0-.906-0.523L172.64,151.61a2.027,2.027,0,0,0-.913,1.57l-2.013,14.157a0.552,0.552,0,0,0,.9.527L192.3,155.875a2.359,2.359,0,0,0,.783-1.807Z"/><path id="_Path_83" data-name="&lt;Path&gt;" class="cls-93" d="M223.249,21.4a0.544,0.544,0,0,0-.892-0.515L201.241,33.073a2,2,0,0,0-.9,1.545l-1.981,13.931a0.543,0.543,0,0,0,.888.519l21.34-11.8a2.321,2.321,0,0,0,.771-1.778Z"/><path id="_Path_84" data-name="&lt;Path&gt;" class="cls-94" d="M195.617,5.629a0.693,0.693,0,0,0-1.136-.656L167.592,20.5a2.54,2.54,0,0,0-1.144,1.968L163.925,40.2a0.692,0.692,0,0,0,1.131.66l27.175-15.022a2.956,2.956,0,0,0,.982-2.264Z"/><path id="_Path_85" data-name="&lt;Path&gt;" class="cls-95" d="M18.89,45.981a0.755,0.755,0,0,1,1.237-.714l29.28,16.9a2.766,2.766,0,0,1,1.245,2.142L53.4,83.631a0.753,0.753,0,0,1-1.231.719L22.578,67.992a3.219,3.219,0,0,1-1.069-2.465Z"/><path id="_Path_86" data-name="&lt;Path&gt;" class="cls-96" d="M43.724,29.335a0.616,0.616,0,0,1,1.01-.583l23.905,13.8A2.259,2.259,0,0,1,69.656,44.3L71.9,60.074a0.615,0.615,0,0,1-1.005.587L46.734,47.306a2.628,2.628,0,0,1-.873-2.013Z"/><path id="_Path_87" data-name="&lt;Path&gt;" class="cls-97" d="M9.775,7.761A0.5,0.5,0,0,1,10.6,7.284L30.135,18.563a1.846,1.846,0,0,1,.831,1.43L32.8,32.88a0.5,0.5,0,0,1-.821.48L12.235,22.446a2.148,2.148,0,0,1-.713-1.645Z"/><path class="cls-98" d="M58.035,16a2.517,2.517,0,0,0-4.073,2.363,8.024,8.024,0,0,0,3.625,6.278,3.518,3.518,0,0,0,1.736.523,2.2,2.2,0,0,0,1.116-.291,2.813,2.813,0,0,0,1.221-2.6A8.04,8.04,0,0,0,58.035,16Zm1.945,8.079a1.949,1.949,0,0,1-1.935-.232,7.116,7.116,0,0,1-3.166-5.484,1.959,1.959,0,0,1,.769-1.8,1.3,1.3,0,0,1,.66-0.167,2.606,2.606,0,0,1,1.27.4,7.137,7.137,0,0,1,3.166,5.486A1.957,1.957,0,0,1,59.98,24.079Z"/><path class="cls-99" d="M56.373,146.145a0.814,0.814,0,0,0-1.318.764,2.6,2.6,0,0,0,1.173,2.032,1.139,1.139,0,0,0,.562.169,0.712,0.712,0,0,0,.361-0.094,0.91,0.91,0,0,0,.395-0.84A2.6,2.6,0,0,0,56.373,146.145ZM57,148.76a0.631,0.631,0,0,1-.626-0.075,2.3,2.3,0,0,1-1.025-1.775,0.634,0.634,0,0,1,.249-0.582,0.422,0.422,0,0,1,.213-0.054,0.842,0.842,0,0,1,.411.129,2.309,2.309,0,0,1,1.025,1.775A0.633,0.633,0,0,1,57,148.76Z"/><path class="cls-100" d="M2.954,122.194a2.028,2.028,0,0,0-2.064-.168A2.042,2.042,0,0,0,0,123.907a5.819,5.819,0,0,0,2.629,4.553,2.551,2.551,0,0,0,1.259.379,1.6,1.6,0,0,0,.809-0.211,2.04,2.04,0,0,0,.885-1.882A5.83,5.83,0,0,0,2.954,122.194Zm1.41,5.859a1.413,1.413,0,0,1-1.4-.168,5.16,5.16,0,0,1-2.3-3.977,1.421,1.421,0,0,1,.557-1.305,0.945,0.945,0,0,1,.478-0.121,1.889,1.889,0,0,1,.921.288,5.176,5.176,0,0,1,2.3,3.978A1.419,1.419,0,0,1,4.364,128.053Z"/><path class="cls-101" d="M2.954,53.462A2.028,2.028,0,0,0,.89,53.295,2.042,2.042,0,0,0,0,55.175a5.819,5.819,0,0,0,2.629,4.553,2.551,2.551,0,0,0,1.259.379A1.6,1.6,0,0,0,4.7,59.9a2.04,2.04,0,0,0,.885-1.883A5.83,5.83,0,0,0,2.954,53.462Zm1.41,5.859a1.413,1.413,0,0,1-1.4-.168,5.16,5.16,0,0,1-2.3-3.977,1.421,1.421,0,0,1,.557-1.305A0.945,0.945,0,0,1,1.7,53.749a1.889,1.889,0,0,1,.921.288,5.176,5.176,0,0,1,2.3,3.978A1.419,1.419,0,0,1,4.364,59.321Z"/><path class="cls-102" d="M232.647,81.657a2.04,2.04,0,0,0,.885,1.882,1.6,1.6,0,0,0,.809.211,2.55,2.55,0,0,0,1.259-.379,5.819,5.819,0,0,0,2.629-4.553,1.825,1.825,0,0,0-2.954-1.713A5.83,5.83,0,0,0,232.647,81.657Zm0.665,0a5.176,5.176,0,0,1,2.3-3.978,1.889,1.889,0,0,1,.921-0.288,0.944,0.944,0,0,1,.478.121,1.42,1.42,0,0,1,.558,1.305,5.16,5.16,0,0,1-2.3,3.977A1.178,1.178,0,0,1,233.312,81.659Z"/><path class="cls-103" d="M214.5,7.038a2.912,2.912,0,0,0,1.264,2.687,2.278,2.278,0,0,0,1.155.3,3.641,3.641,0,0,0,1.8-.542,8.306,8.306,0,0,0,3.752-6.5A2.914,2.914,0,0,0,221.2.3a2.9,2.9,0,0,0-2.946.239A8.322,8.322,0,0,0,214.5,7.038Zm0.949,0a7.388,7.388,0,0,1,3.278-5.679A2.7,2.7,0,0,1,220.044.95a1.348,1.348,0,0,1,.683.173,2.028,2.028,0,0,1,.8,1.863,7.366,7.366,0,0,1-3.278,5.677,2.017,2.017,0,0,1-2,.24A2.026,2.026,0,0,1,215.452,7.041Z"/><path class="cls-104" d="M179.241,59.967a1.277,1.277,0,0,0,.554,1.178,1,1,0,0,0,.507.132,1.6,1.6,0,0,0,.788-0.237,3.642,3.642,0,0,0,1.645-2.849,1.142,1.142,0,0,0-1.849-1.072A3.649,3.649,0,0,0,179.241,59.967Zm0.416,0a3.239,3.239,0,0,1,1.437-2.49,1.182,1.182,0,0,1,.576-0.181,0.591,0.591,0,0,1,.3.076,0.889,0.889,0,0,1,.349.817,3.229,3.229,0,0,1-1.437,2.489A0.737,0.737,0,0,1,179.657,59.968Z"/><path class="cls-105" d="M205.286,162.489a1.276,1.276,0,0,0,.554,1.178,1,1,0,0,0,.507.132,1.6,1.6,0,0,0,.788-0.237,3.642,3.642,0,0,0,1.645-2.849,1.142,1.142,0,0,0-1.849-1.072A3.649,3.649,0,0,0,205.286,162.489Zm0.416,0a3.239,3.239,0,0,1,1.437-2.49,1.182,1.182,0,0,1,.576-0.181,0.59,0.59,0,0,1,.3.076,0.889,0.889,0,0,1,.349.817,3.229,3.229,0,0,1-1.437,2.489A0.737,0.737,0,0,1,205.7,162.49Z"/></g></svg>